<svg width="86" height="14" viewBox="0 0 86 14" fill="none" xmlns="http://www.w3.org/2000/svg">
<path d="M9.62534 6.43H12.7753V11.65C12.0553 12.166 11.2273 12.562 10.2913 12.838C9.35534 13.114 8.41934 13.252 7.48334 13.252C6.16334 13.252 4.97534 12.976 3.91934 12.424C2.86334 11.86 2.03534 11.08 1.43534 10.084C0.83534 9.088 0.53534 7.96 0.53534 6.7C0.53534 5.44 0.83534 4.312 1.43534 3.316C2.03534 2.32 2.86934 1.546 3.93734 0.993999C5.00534 0.429999 6.21134 0.147999 7.55534 0.147999C8.73134 0.147999 9.78734 0.345999 10.7233 0.741999C11.6593 1.138 12.4393 1.708 13.0633 2.452L10.7953 4.504C9.94334 3.568 8.92334 3.1 7.73534 3.1C6.65534 3.1 5.78534 3.43 5.12534 4.09C4.46534 4.738 4.13534 5.608 4.13534 6.7C4.13534 7.396 4.28534 8.02 4.58534 8.572C4.88534 9.112 5.30534 9.538 5.84534 9.85C6.38534 10.15 7.00334 10.3 7.69934 10.3C8.38334 10.3 9.02534 10.162 9.62534 9.886V6.43ZM21.3889 13.252C20.0569 13.252 18.8569 12.97 17.7889 12.406C16.7329 11.842 15.8989 11.062 15.2869 10.066C14.6869 9.07 14.3869 7.948 14.3869 6.7C14.3869 5.452 14.6869 4.33 15.2869 3.334C15.8989 2.338 16.7329 1.558 17.7889 0.993999C18.8569 0.429999 20.0569 0.147999 21.3889 0.147999C22.7209 0.147999 23.9149 0.429999 24.9709 0.993999C26.0389 1.558 26.8729 2.338 27.4729 3.334C28.0849 4.33 28.3909 5.452 28.3909 6.7C28.3909 7.948 28.0849 9.07 27.4729 10.066C26.8729 11.062 26.0389 11.842 24.9709 12.406C23.9149 12.97 22.7209 13.252 21.3889 13.252ZM21.3889 10.3C22.0249 10.3 22.6009 10.15 23.1169 9.85C23.6329 9.55 24.0409 9.13 24.3409 8.59C24.6409 8.038 24.7909 7.408 24.7909 6.7C24.7909 5.992 24.6409 5.368 24.3409 4.828C24.0409 4.276 23.6329 3.85 23.1169 3.55C22.6009 3.25 22.0249 3.1 21.3889 3.1C20.7529 3.1 20.1769 3.25 19.6609 3.55C19.1449 3.85 18.7369 4.276 18.4369 4.828C18.1369 5.368 17.9869 5.992 17.9869 6.7C17.9869 7.408 18.1369 8.038 18.4369 8.59C18.7369 9.13 19.1449 9.55 19.6609 9.85C20.1769 10.15 20.7529 10.3 21.3889 10.3Z" fill="white"/>
<path d="M42.2456 0.399999V13H38.6816V8.086H33.8216V13H30.2576V0.399999H33.8216V5.134H38.6816V0.399999H42.2456ZM49.4935 13.162C48.4495 13.162 47.5075 12.946 46.6675 12.514C45.8275 12.082 45.1675 11.482 44.6875 10.714C44.2195 9.946 43.9855 9.076 43.9855 8.104C43.9855 7.144 44.2195 6.28 44.6875 5.512C45.1675 4.744 45.8215 4.15 46.6495 3.73C47.4895 3.298 48.4375 3.082 49.4935 3.082C50.5495 3.082 51.4975 3.298 52.3375 3.73C53.1775 4.15 53.8315 4.744 54.2995 5.512C54.7675 6.268 55.0015 7.132 55.0015 8.104C55.0015 9.076 54.7675 9.946 54.2995 10.714C53.8315 11.482 53.1775 12.082 52.3375 12.514C51.4975 12.946 50.5495 13.162 49.4935 13.162ZM49.4935 10.444C50.0935 10.444 50.5855 10.24 50.9695 9.832C51.3535 9.412 51.5455 8.836 51.5455 8.104C51.5455 7.384 51.3535 6.82 50.9695 6.412C50.5855 6.004 50.0935 5.8 49.4935 5.8C48.8935 5.8 48.4015 6.004 48.0175 6.412C47.6335 6.82 47.4415 7.384 47.4415 8.104C47.4415 8.836 47.6335 9.412 48.0175 9.832C48.4015 10.24 48.8935 10.444 49.4935 10.444ZM69.2938 3.082C70.4938 3.082 71.4478 3.442 72.1558 4.162C72.8758 4.882 73.2358 5.968 73.2358 7.42V13H69.8158V7.978C69.8158 7.294 69.6838 6.79 69.4198 6.466C69.1678 6.142 68.8078 5.98 68.3398 5.98C67.8238 5.98 67.4098 6.16 67.0978 6.52C66.7858 6.88 66.6298 7.426 66.6298 8.158V13H63.2098V7.978C63.2098 6.646 62.7178 5.98 61.7338 5.98C61.2058 5.98 60.7858 6.16 60.4738 6.52C60.1618 6.88 60.0058 7.426 60.0058 8.158V13H56.5858V3.244H59.8438V4.27C60.2038 3.874 60.6298 3.58 61.1218 3.388C61.6258 3.184 62.1718 3.082 62.7598 3.082C63.4438 3.082 64.0558 3.208 64.5958 3.46C65.1358 3.712 65.5738 4.096 65.9098 4.612C66.2938 4.12 66.7798 3.742 67.3678 3.478C67.9558 3.214 68.5978 3.082 69.2938 3.082ZM85.507 8.14C85.507 8.164 85.489 8.446 85.453 8.986H78.361C78.505 9.49 78.781 9.88 79.189 10.156C79.609 10.42 80.131 10.552 80.755 10.552C81.223 10.552 81.625 10.486 81.961 10.354C82.309 10.222 82.657 10.006 83.005 9.706L84.805 11.578C83.857 12.634 82.471 13.162 80.647 13.162C79.507 13.162 78.505 12.946 77.641 12.514C76.777 12.082 76.105 11.482 75.625 10.714C75.157 9.946 74.923 9.076 74.923 8.104C74.923 7.144 75.151 6.286 75.607 5.53C76.075 4.762 76.717 4.162 77.533 3.73C78.349 3.298 79.267 3.082 80.287 3.082C81.259 3.082 82.141 3.286 82.933 3.694C83.725 4.09 84.349 4.672 84.805 5.44C85.273 6.196 85.507 7.096 85.507 8.14ZM80.305 5.512C79.777 5.512 79.333 5.662 78.973 5.962C78.625 6.262 78.403 6.67 78.307 7.186H82.303C82.207 6.67 81.979 6.262 81.619 5.962C81.271 5.662 80.833 5.512 80.305 5.512Z" fill="#FF662D"/>
</svg>
